<svg width="70" height="70" xmlns="http://www.w3.org/2000/svg" fill="none">
 <g>
  <title>Layer 1</title>
  <rect stroke-width="0" rx="8" filter="url(#svg_2_blur)" id="svg_2" height="70" width="70" y="0" x="0" stroke="#000000" fill="#1b1b1f"/>
  <path d="m30.3967,36.49655c2.8554,1.648 4.2831,2.472 5.851,2.4733c1.5679,0.0014 2.9971,-0.8201 5.8553,-2.4631l18.2198,-10.4733c0.8225,-0.4728 1.3296,-1.3492 1.3296,-2.2979c0,-0.9487 -0.5071,-1.8251 -1.3296,-2.2979l-18.2264,-10.4771c-2.8551,-1.6412 -4.2827,-2.4618 -5.8491,-2.4612c-1.5664,0.0006 -2.9934,0.8223 -5.8473,2.4658l-15.66857,9.023c-0.11613,0.0669 -0.1742,0.1003 -0.22831,0.132c-5.35226,3.1332 -8.65906,8.8534 -8.70327,15.0552c-0.00045,0.0627 -0.00045,0.1297 -0.00045,0.2637c0,0.1338 0,0.2008 0.00045,0.2634c0.04411,6.1948 3.34354,11.9096 8.68626,15.0453c0.05402,0.0317 0.11198,0.0652 0.2279,0.1321l9.81479,5.6668c5.719,3.302 8.5785,4.953 11.7187,4.954c3.1402,0.0011 6.0009,-1.648 11.7221,-4.9461l10.3608,-5.9728c2.8648,-1.6514 4.2972,-2.4771 5.0837,-3.8384c0.7865,-1.3613 0.7865,-3.0146 0.7865,-6.3213l0,-6.3878c0,-0.9174 -0.4968,-1.7627 -1.2982,-2.2091c-0.7756,-0.4319 -1.7208,-0.4255 -2.4904,0.0169l-21.245,12.2122c-1.4254,0.8194 -2.1381,1.2291 -2.9202,1.2293c-0.7821,0.0003 -1.4951,-0.409 -2.921,-1.2275l-14.3791,-8.2539c-0.7202,-0.4135 -1.0804,-0.6202 -1.3696,-0.6575c-0.6595,-0.0851 -1.2936,0.2843 -1.5449,0.9c-0.1101,0.27 -0.1079,0.6853 -0.1034,1.5158c0.0032,0.6114 0.0049,0.9171 0.062,1.1983c0.128,0.6297 0.4593,1.1999 0.943,1.6229c0.216,0.1889 0.4808,0.3417 1.0103,0.6474l15.3736,8.873c1.4296,0.8251 2.1444,1.2377 2.9293,1.2379c0.7849,0.0002 1.5,-0.412 2.93,-1.2363l18.8435,-10.8621c0.4885,-0.2816 0.7328,-0.4224 0.9159,-0.3166c0.1831,0.1058 0.1831,0.3877 0.1831,0.9516l0,2.8973c0,0.8267 0,1.2401 -0.1966,1.5804c-0.1967,0.3403 -0.5548,0.5468 -1.271,0.9596l-15.5423,8.9592c-2.8612,1.6493 -4.2919,2.474 -5.8623,2.4733c-1.5704,-0.0008 -3.0003,-0.8267 -5.86,-2.4787l-14.5411,-8.3998c-0.0462,-0.0267 -0.06925,-0.04 -0.09079,-0.0526c-3.0489,-1.7816 -4.93018,-5.041 -4.94783,-8.5722c-0.00012,-0.025 -0.00012,-0.0516 -0.00012,-0.1049l0,-2.6597c0,-1.9494 1.03824,-3.7512 2.72479,-4.7288c1.49029,-0.8638 3.32855,-0.8656 4.82045,-0.0045l12.044,6.9514z" fill="white" id="svg_8" stroke-width="0" stroke="#000000"/>
 </g>

</svg>